External Loads File
version=1
nRows=77
nColumns=13
Range=5.000000e-03-10 seconds
endheader
time 	forceRightX 	forceRightY 	forceRightZ 	pointRightX 	pointRightY 	pointRightZ 	forceLeftX 	forceLeftY 	forceLeftZ 	pointLeftX 	pointLeftY 	pointLeftZ 		
2.505000 374.791971 991.255148 -0.000000 0.292293 0.136248 -0.136748 -17.157996 85.878741 -0.000000 0.315337 0.475711 -0.372261
2.510000 376.264987 938.765293 -0.000000 0.283108 0.135465 -0.137059 -22.116934 94.062129 -0.000000 0.324725 0.477119 -0.371800
2.515000 372.499895 879.631468 -0.000000 0.273999 0.135031 -0.137369 -27.620252 101.714794 -0.000000 0.334165 0.477992 -0.371213
2.520000 362.773529 815.133714 -0.000000 0.265064 0.135380 -0.137663 -33.703511 108.669008 -0.000000 0.343322 0.478302 -0.370705
2.525000 348.035623 746.054593 -0.000000 0.256399 0.136318 -0.137970 -40.211547 114.799342 -0.000000 0.352480 0.477841 -0.370126
2.530000 328.338075 673.757421 -0.000000 0.247937 0.137971 -0.138353 -47.118333 119.915290 -0.000000 0.361416 0.477070 -0.369704
2.535000 304.221346 599.583268 -0.000000 0.239678 0.139563 -0.138545 -54.393408 123.821811 -0.000000 0.370196 0.475660 -0.369256
2.540000 276.454950 524.904030 -0.000000 0.231757 0.142007 -0.138936 -62.036943 126.383432 -0.000000 0.378636 0.473810 -0.368902
2.545000 245.942996 451.103879 -0.000000 0.224356 0.145026 -0.139222 -70.069611 127.601294 -0.000000 0.386791 0.471177 -0.368679
2.550000 213.798889 379.498795 -0.000000 0.217134 0.148438 -0.139590 -78.457015 127.701835 -0.000000 0.394599 0.467939 -0.368520
2.555000 180.815325 311.599566 -0.000000 0.210332 0.152447 -0.139925 -87.240443 127.072561 -0.000000 0.401971 0.463956 -0.368440
2.560000 147.972504 248.780914 -0.000000 0.203864 0.156857 -0.140089 -96.393191 126.315001 -0.000000 0.409073 0.459378 -0.368345
2.565000 116.026203 192.423698 -0.000000 0.197751 0.161517 -0.140273 -105.971061 126.086822 -0.000000 0.415748 0.454242 -0.368403
2.570000 86.110168 143.427706 -0.000000 0.192045 0.166763 -0.140379 -115.744658 127.323532 -0.000000 0.422090 0.448295 -0.368847
2.575000 58.870606 102.584971 -0.000000 0.186588 0.172373 -0.140384 -125.724701 130.755859 -0.000000 0.427952 0.441926 -0.368831
2.580000 35.023479 70.109657 -0.000000 0.181492 0.178279 -0.140385 -135.877117 137.114189 -0.000000 0.433316 0.434981 -0.368824
2.585000 15.084239 45.730674 -0.000000 0.176676 0.184735 -0.140382 -146.190322 147.093518 -0.000000 0.438236 0.427573 -0.368593
2.590000 -0.792449 28.805954 -0.000000 0.172142 0.191444 -0.140376 -156.967726 161.058366 -0.000000 0.442627 0.419657 -0.368647
2.595000 -12.634321 18.383720 -0.000000 0.168031 0.198677 -0.140247 -168.478816 179.353576 -0.000000 0.446521 0.411286 -0.368820
2.600000 -20.662850 13.398041 -0.000000 0.164230 0.206365 -0.139905 -180.979744 202.204595 -0.000000 0.450049 0.402496 -0.368792
2.605000 -25.215829 12.768316 -0.000000 0.160866 0.214429 -0.139622 -194.607189 229.737727 -0.000000 0.453162 0.393023 -0.368628
2.610000 -26.708266 15.443943 -0.000000 0.157901 0.222943 -0.139265 -209.582796 261.773219 -0.000000 0.455766 0.383325 -0.368666
2.615000 -25.560666 20.526349 -0.000000 0.155329 0.231939 -0.139050 -225.803277 298.181977 -0.000000 0.457833 0.373473 -0.368636
2.620000 -22.132194 27.296344 -0.000000 0.153318 0.241413 -0.139113 -242.839793 338.877655 -0.000000 0.459351 0.363276 -0.368581
2.625000 -16.763527 35.124614 -0.000000 0.151687 0.251022 -0.139118 -260.677979 383.364630 -0.000000 0.460323 0.352935 -0.368586
2.630000 -9.733394 43.492484 -0.000000 0.150210 0.261004 -0.139787 -278.417845 431.783389 -0.000000 0.460724 0.342335 -0.368629
2.635000 -1.464157 51.882249 -0.000000 0.149868 0.271175 -0.139773 -296.070623 483.724376 -0.000000 0.460735 0.331542 -0.369023
2.640000 7.628837 59.876082 -0.000000 0.149999 0.281502 -0.139872 -313.184433 539.166230 -0.000000 0.460043 0.320701 -0.368902
2.645000 17.161740 67.134582 -0.000000 0.150738 0.291935 -0.139972 -329.231183 598.156554 -0.000000 0.458783 0.309814 -0.369146
2.650000 26.779439 73.381757 -0.000000 0.152159 0.302332 -0.140023 -343.775319 660.687151 -0.000000 0.456915 0.298861 -0.369236
2.655000 36.130510 78.420726 -0.000000 0.154180 0.312633 -0.140115 -356.597027 726.604880 -0.000000 0.454646 0.288004 -0.369629
2.660000 44.929063 82.121494 -0.000000 0.156829 0.322923 -0.140234 -366.945186 795.919318 -0.000000 0.451783 0.277342 -0.369474
2.665000 52.859023 84.444073 -0.000000 0.160165 0.332964 -0.140209 -374.113141 868.388565 -0.000000 0.448379 0.266764 -0.369508
2.670000 59.583402 85.417352 -0.000000 0.164106 0.342829 -0.140157 -377.166908 943.548745 -0.000000 0.444436 0.256430 -0.369595
2.675000 64.717259 85.153305 -0.000000 0.168665 0.352463 -0.140065 -375.199795 1020.537072 -0.000000 0.439981 0.246421 -0.369569
2.680000 67.879430 83.840767 -0.000000 0.173928 0.361673 -0.139866 -366.835022 1098.252946 -0.000000 0.434903 0.236639 -0.369597
2.685000 68.652191 81.865037 -0.000000 0.179641 0.370549 -0.139591 -351.240617 1174.961872 -0.000000 0.429331 0.227155 -0.369691
2.690000 66.788365 79.773417 -0.000000 0.186008 0.379294 -0.139287 -326.632534 1248.801680 -0.000000 0.423293 0.218052 -0.369763
2.695000 62.093447 78.481038 -0.000000 0.192813 0.387607 -0.138914 -294.060664 1316.912296 -0.000000 0.416715 0.209401 -0.369882
2.700000 54.865510 78.908539 -0.000000 0.200161 0.395738 -0.138512 -252.724415 1377.042861 -0.000000 0.409706 0.201217 -0.369923
2.705000 45.618009 82.054339 -0.000000 0.207832 0.403518 -0.138153 -204.799501 1426.504198 -0.000000 0.402268 0.193591 -0.369975
2.710000 35.177975 88.636026 -0.000000 0.215887 0.410624 -0.137816 -152.210726 1463.048773 -0.000000 0.394472 0.186497 -0.370041
2.715000 24.593336 98.940732 -0.000000 0.224295 0.417348 -0.137434 -95.423409 1485.041611 -0.000000 0.386399 0.179902 -0.370135
2.720000 14.786629 112.840459 -0.000000 0.232943 0.423673 -0.137152 -36.522390 1491.281671 -0.000000 0.378010 0.173904 -0.370210
2.725000 6.470430 129.737642 -0.000000 0.241812 0.429349 -0.136833 22.110634 1481.390745 -0.000000 0.369352 0.168482 -0.370321
2.730000 0.438342 148.646376 -0.000000 0.251248 0.435113 -0.136045 81.826118 1455.672290 -0.000000 0.360476 0.163615 -0.370459
2.735000 -3.743402 168.402786 -0.000000 0.260419 0.439698 -0.135859 134.576822 1415.559416 -0.000000 0.351403 0.159319 -0.370620
2.740000 -5.559635 187.879216 -0.000000 0.270075 0.444022 -0.135421 184.627720 1362.415434 -0.000000 0.342063 0.155541 -0.370853
2.745000 -5.565873 206.170088 -0.000000 0.279977 0.447824 -0.135102 228.119684 1298.475332 -0.000000 0.332704 0.152342 -0.371159
2.750000 -4.184740 222.663480 -0.000000 0.289848 0.451140 -0.134728 263.832033 1225.974991 -0.000000 0.323190 0.149745 -0.371498
2.755000 -1.832508 237.034666 -0.000000 0.299676 0.453920 -0.134290 291.296272 1147.026716 -0.000000 0.313574 0.147749 -0.371780
2.760000 1.179944 249.203907 -0.000000 0.309577 0.456131 -0.134031 310.956217 1063.436666 -0.000000 0.303909 0.146480 -0.372129
2.765000 4.562872 259.286347 -0.000000 0.319555 0.457871 -0.133928 323.204584 976.891824 -0.000000 0.294216 0.145922 -0.372476
2.770000 7.967070 267.545616 -0.000000 0.329341 0.459111 -0.133906 327.944732 889.196840 -0.000000 0.284437 0.145886 -0.372834
2.775000 11.513246 274.318080 -0.000000 0.339181 0.459615 -0.134098 326.492871 801.660312 -0.000000 0.274726 0.146755 -0.373217
2.780000 14.496813 279.984646 -0.000000 0.348299 0.459895 -0.133817 317.663548 716.600476 -0.000000 0.265074 0.148192 -0.373608
2.785000 17.643123 284.802008 -0.000000 0.357410 0.459317 -0.133895 304.458836 634.576195 -0.000000 0.255621 0.150265 -0.373898
2.790000 20.982835 288.957211 -0.000000 0.366322 0.458144 -0.133703 287.722831 556.851760 -0.000000 0.246262 0.153076 -0.374265
2.795000 24.214028 292.643797 -0.000000 0.374867 0.456446 -0.133747 267.864131 484.795488 -0.000000 0.237252 0.156501 -0.374609
2.800000 27.429115 296.138824 -0.000000 0.382981 0.454168 -0.133590 246.205449 419.130616 -0.000000 0.228501 0.160417 -0.374911
2.805000 30.875145 299.864602 -0.000000 0.390829 0.451214 -0.133312 224.140634 360.257750 -0.000000 0.220099 0.164924 -0.375213
2.810000 34.435419 304.380715 -0.000000 0.398114 0.447576 -0.133058 202.448447 308.642008 -0.000000 0.212078 0.170010 -0.375512
2.815000 38.238237 310.245766 -0.000000 0.404898 0.443341 -0.132799 182.111244 264.311214 -0.000000 0.204406 0.175582 -0.375858
2.820000 42.493848 317.981951 -0.000000 0.411109 0.438284 -0.132575 163.949417 227.072173 -0.000000 0.197067 0.181668 -0.376216
2.825000 46.797616 328.134554 -0.000000 0.416919 0.433006 -0.132320 148.151729 196.885184 -0.000000 0.190303 0.188209 -0.376552
2.830000 51.361068 341.065130 -0.000000 0.422188 0.427015 -0.132106 135.215314 173.208697 -0.000000 0.183980 0.195151 -0.376765
2.835000 55.890371 357.041445 -0.000000 0.426954 0.420468 -0.131839 125.186328 155.567390 -0.000000 0.178149 0.202436 -0.377093
2.840000 60.167770 376.093693 -0.000000 0.431206 0.413364 -0.131619 118.127219 143.244393 -0.000000 0.172791 0.210098 -0.377343
2.845000 63.754672 398.033552 -0.000000 0.434842 0.405661 -0.131309 113.973230 135.405447 -0.000000 0.167954 0.218093 -0.377623
2.850000 66.141994 422.478766 -0.000000 0.438075 0.397507 -0.131138 112.551311 131.082325 -0.000000 0.163661 0.226319 -0.377832
2.855000 67.514660 448.823154 -0.000000 0.441099 0.388799 -0.131327 113.736036 129.037787 -0.000000 0.159943 0.235061 -0.377941
2.860000 66.876109 476.618187 -0.000000 0.443441 0.379692 -0.131151 116.853559 128.316899 -0.000000 0.156706 0.244029 -0.378058
2.865000 64.692898 505.251635 -0.000000 0.445354 0.370068 -0.131127 121.484049 127.636784 -0.000000 0.153822 0.253334 -0.377419
2.870000 60.338211 534.374280 -0.000000 0.446786 0.360108 -0.131101 126.776906 126.121367 -0.000000 0.151733 0.262838 -0.377479
2.875000 54.013528 563.678322 -0.000000 0.447890 0.349934 -0.131191 132.004600 122.919637 -0.000000 0.150418 0.272547 -0.377567
2.880000 46.331920 593.055945 -0.000000 0.448414 0.339370 -0.131222 136.457334 117.406879 -0.000000 0.149705 0.282393 -0.377664
2.885000 38.119032 622.667771 -0.000000 0.448428 0.328531 -0.131006 139.470195 109.292219 -0.000000 0.149637 0.292559 -0.377651
